<mxfile host="app.diagrams.net" agent="Mozilla/5.0 (X11; Ubuntu; Linux x86_64; rv:143.0) Gecko/20100101 Firefox/143.0" version="28.2.5">
  <diagram name="Page-1" id="HYv8fZ2bawOX4K9-IZcn">
    <mxGraphModel dx="1422" dy="842" grid="1" gridSize="10" guides="1" tooltips="1" connect="1" arrows="1" fold="1" page="1" pageScale="1" pageWidth="827" pageHeight="1169" math="0" shadow="0">
      <root>
        <mxCell id="0" />
        <mxCell id="1" parent="0" />
        <mxCell id="Fpza6wBcu4iObjeH_q8t-1" value="&lt;div&gt;&lt;font style=&quot;font-size: 14px;&quot;&gt;Global occupancy&lt;/font&gt;&lt;/div&gt;&lt;div&gt;&lt;font style=&quot;font-size: 14px;&quot;&gt;grid&lt;/font&gt;&lt;/div&gt;" style="shape=parallelogram;perimeter=parallelogramPerimeter;whiteSpace=wrap;html=1;fixedSize=1;" parent="1" vertex="1">
          <mxGeometry x="30" y="170" width="150" height="60" as="geometry" />
        </mxCell>
        <mxCell id="EYZ7X_Z6VEcjIyNGsq-e-4" style="edgeStyle=orthogonalEdgeStyle;rounded=0;orthogonalLoop=1;jettySize=auto;html=1;entryX=0.75;entryY=0;entryDx=0;entryDy=0;" edge="1" parent="1" source="Fpza6wBcu4iObjeH_q8t-2" target="EYZ7X_Z6VEcjIyNGsq-e-2">
          <mxGeometry relative="1" as="geometry" />
        </mxCell>
        <mxCell id="Fpza6wBcu4iObjeH_q8t-2" value="&lt;div&gt;&lt;font style=&quot;font-size: 14px;&quot;&gt;Local occupancy&lt;/font&gt;&lt;/div&gt;&lt;div&gt;&lt;font style=&quot;font-size: 14px;&quot;&gt;grid&lt;/font&gt;&lt;/div&gt;" style="shape=parallelogram;perimeter=parallelogramPerimeter;whiteSpace=wrap;html=1;fixedSize=1;" parent="1" vertex="1">
          <mxGeometry x="200" y="170" width="150" height="60" as="geometry" />
        </mxCell>
        <mxCell id="EYZ7X_Z6VEcjIyNGsq-e-9" style="edgeStyle=orthogonalEdgeStyle;rounded=0;orthogonalLoop=1;jettySize=auto;html=1;entryX=1;entryY=0.5;entryDx=0;entryDy=0;exitX=0.46;exitY=1;exitDx=0;exitDy=0;exitPerimeter=0;" edge="1" parent="1" source="Fpza6wBcu4iObjeH_q8t-3" target="EYZ7X_Z6VEcjIyNGsq-e-5">
          <mxGeometry relative="1" as="geometry" />
        </mxCell>
        <mxCell id="Fpza6wBcu4iObjeH_q8t-3" value="&lt;div&gt;&lt;font style=&quot;font-size: 14px;&quot;&gt;Robot positions&amp;nbsp;&lt;/font&gt;&lt;/div&gt;&lt;div&gt;&lt;font style=&quot;font-size: 14px;&quot;&gt;(x, y, theta)&lt;/font&gt;&lt;/div&gt;" style="shape=parallelogram;perimeter=parallelogramPerimeter;whiteSpace=wrap;html=1;fixedSize=1;" parent="1" vertex="1">
          <mxGeometry x="370" y="170" width="150" height="60" as="geometry" />
        </mxCell>
        <mxCell id="EYZ7X_Z6VEcjIyNGsq-e-21" style="edgeStyle=orthogonalEdgeStyle;rounded=0;orthogonalLoop=1;jettySize=auto;html=1;entryX=0.5;entryY=0;entryDx=0;entryDy=0;" edge="1" parent="1" source="Fpza6wBcu4iObjeH_q8t-5" target="EYZ7X_Z6VEcjIyNGsq-e-20">
          <mxGeometry relative="1" as="geometry" />
        </mxCell>
        <mxCell id="Fpza6wBcu4iObjeH_q8t-5" value="&lt;div&gt;&lt;font style=&quot;font-size: 14px;&quot;&gt;Merged occupancy&lt;/font&gt;&lt;/div&gt;&lt;div&gt;&lt;font style=&quot;font-size: 14px;&quot;&gt;grid (global)&lt;/font&gt;&lt;/div&gt;" style="shape=parallelogram;perimeter=parallelogramPerimeter;whiteSpace=wrap;html=1;fixedSize=1;" parent="1" vertex="1">
          <mxGeometry x="110" y="800" width="150" height="60" as="geometry" />
        </mxCell>
        <mxCell id="Fpza6wBcu4iObjeH_q8t-6" value="&lt;font style=&quot;font-size: 14px;&quot;&gt;Merge confidence scores for grid&lt;/font&gt;" style="shape=parallelogram;perimeter=parallelogramPerimeter;whiteSpace=wrap;html=1;fixedSize=1;" parent="1" vertex="1">
          <mxGeometry x="310" y="800" width="150" height="60" as="geometry" />
        </mxCell>
        <mxCell id="EYZ7X_Z6VEcjIyNGsq-e-7" value="" style="edgeStyle=orthogonalEdgeStyle;rounded=0;orthogonalLoop=1;jettySize=auto;html=1;" edge="1" parent="1" source="EYZ7X_Z6VEcjIyNGsq-e-2" target="EYZ7X_Z6VEcjIyNGsq-e-5">
          <mxGeometry relative="1" as="geometry" />
        </mxCell>
        <mxCell id="EYZ7X_Z6VEcjIyNGsq-e-2" value="&lt;font style=&quot;font-size: 14px;&quot;&gt;Compare areas in occupancy grid&lt;/font&gt;" style="rounded=1;whiteSpace=wrap;html=1;absoluteArcSize=1;arcSize=14;strokeWidth=2;" vertex="1" parent="1">
          <mxGeometry x="110" y="320" width="150" height="100" as="geometry" />
        </mxCell>
        <mxCell id="EYZ7X_Z6VEcjIyNGsq-e-3" style="edgeStyle=orthogonalEdgeStyle;rounded=0;orthogonalLoop=1;jettySize=auto;html=1;entryX=0.3;entryY=0;entryDx=0;entryDy=0;entryPerimeter=0;" edge="1" parent="1" source="Fpza6wBcu4iObjeH_q8t-1" target="EYZ7X_Z6VEcjIyNGsq-e-2">
          <mxGeometry relative="1" as="geometry" />
        </mxCell>
        <mxCell id="EYZ7X_Z6VEcjIyNGsq-e-11" value="" style="edgeStyle=orthogonalEdgeStyle;rounded=0;orthogonalLoop=1;jettySize=auto;html=1;" edge="1" parent="1" source="EYZ7X_Z6VEcjIyNGsq-e-5" target="EYZ7X_Z6VEcjIyNGsq-e-10">
          <mxGeometry relative="1" as="geometry" />
        </mxCell>
        <mxCell id="EYZ7X_Z6VEcjIyNGsq-e-5" value="&lt;font style=&quot;font-size: 14px;&quot;&gt;Factor in robot positions&lt;/font&gt;" style="rounded=1;whiteSpace=wrap;html=1;absoluteArcSize=1;arcSize=14;strokeWidth=2;" vertex="1" parent="1">
          <mxGeometry x="110" y="470" width="150" height="100" as="geometry" />
        </mxCell>
        <mxCell id="EYZ7X_Z6VEcjIyNGsq-e-12" style="edgeStyle=orthogonalEdgeStyle;rounded=0;orthogonalLoop=1;jettySize=auto;html=1;entryX=0.5;entryY=0;entryDx=0;entryDy=0;" edge="1" parent="1" source="EYZ7X_Z6VEcjIyNGsq-e-10" target="Fpza6wBcu4iObjeH_q8t-5">
          <mxGeometry relative="1" as="geometry" />
        </mxCell>
        <mxCell id="EYZ7X_Z6VEcjIyNGsq-e-14" value="" style="edgeStyle=orthogonalEdgeStyle;rounded=0;orthogonalLoop=1;jettySize=auto;html=1;" edge="1" parent="1" source="EYZ7X_Z6VEcjIyNGsq-e-10" target="EYZ7X_Z6VEcjIyNGsq-e-13">
          <mxGeometry relative="1" as="geometry" />
        </mxCell>
        <mxCell id="EYZ7X_Z6VEcjIyNGsq-e-10" value="&lt;font style=&quot;font-size: 14px;&quot;&gt;Merge global and local occupancy grids&lt;/font&gt;" style="rounded=1;whiteSpace=wrap;html=1;absoluteArcSize=1;arcSize=14;strokeWidth=2;" vertex="1" parent="1">
          <mxGeometry x="110" y="620" width="150" height="100" as="geometry" />
        </mxCell>
        <mxCell id="EYZ7X_Z6VEcjIyNGsq-e-15" style="edgeStyle=orthogonalEdgeStyle;rounded=0;orthogonalLoop=1;jettySize=auto;html=1;" edge="1" parent="1" source="EYZ7X_Z6VEcjIyNGsq-e-13" target="Fpza6wBcu4iObjeH_q8t-6">
          <mxGeometry relative="1" as="geometry" />
        </mxCell>
        <mxCell id="EYZ7X_Z6VEcjIyNGsq-e-13" value="&lt;font style=&quot;font-size: 14px;&quot;&gt;Compute confidence of merged regions&lt;/font&gt;" style="rounded=1;whiteSpace=wrap;html=1;absoluteArcSize=1;arcSize=14;strokeWidth=2;" vertex="1" parent="1">
          <mxGeometry x="310" y="620" width="150" height="100" as="geometry" />
        </mxCell>
        <mxCell id="EYZ7X_Z6VEcjIyNGsq-e-19" value="" style="endArrow=none;dashed=1;html=1;rounded=0;strokeWidth=2;" edge="1" parent="1">
          <mxGeometry width="50" height="50" relative="1" as="geometry">
            <mxPoint x="10" y="890" as="sourcePoint" />
            <mxPoint x="820" y="890" as="targetPoint" />
          </mxGeometry>
        </mxCell>
        <mxCell id="EYZ7X_Z6VEcjIyNGsq-e-20" value="&lt;font style=&quot;font-size: 14px;&quot;&gt;Send merged occupancy grid to ROS topic&lt;/font&gt;" style="rounded=1;whiteSpace=wrap;html=1;absoluteArcSize=1;arcSize=14;strokeWidth=2;" vertex="1" parent="1">
          <mxGeometry x="110" y="930" width="150" height="100" as="geometry" />
        </mxCell>
        <mxCell id="EYZ7X_Z6VEcjIyNGsq-e-24" style="edgeStyle=orthogonalEdgeStyle;rounded=0;orthogonalLoop=1;jettySize=auto;html=1;" edge="1" parent="1" source="EYZ7X_Z6VEcjIyNGsq-e-22" target="Fpza6wBcu4iObjeH_q8t-1">
          <mxGeometry relative="1" as="geometry" />
        </mxCell>
        <mxCell id="EYZ7X_Z6VEcjIyNGsq-e-22" value="&lt;font style=&quot;font-size: 14px;&quot;&gt;Receive global occupancy grid from ROS topic&lt;/font&gt;" style="rounded=1;whiteSpace=wrap;html=1;absoluteArcSize=1;arcSize=14;strokeWidth=2;" vertex="1" parent="1">
          <mxGeometry x="30" y="10" width="150" height="100" as="geometry" />
        </mxCell>
        <mxCell id="EYZ7X_Z6VEcjIyNGsq-e-26" style="edgeStyle=orthogonalEdgeStyle;rounded=0;orthogonalLoop=1;jettySize=auto;html=1;entryX=0.5;entryY=0;entryDx=0;entryDy=0;" edge="1" parent="1" source="EYZ7X_Z6VEcjIyNGsq-e-23" target="Fpza6wBcu4iObjeH_q8t-2">
          <mxGeometry relative="1" as="geometry" />
        </mxCell>
        <mxCell id="EYZ7X_Z6VEcjIyNGsq-e-23" value="&lt;font style=&quot;font-size: 14px;&quot;&gt;Receive local map from ROS topic from one robot in swarm&lt;/font&gt;" style="rounded=1;whiteSpace=wrap;html=1;absoluteArcSize=1;arcSize=14;strokeWidth=2;" vertex="1" parent="1">
          <mxGeometry x="200" y="10" width="150" height="100" as="geometry" />
        </mxCell>
        <mxCell id="EYZ7X_Z6VEcjIyNGsq-e-25" value="" style="endArrow=none;dashed=1;html=1;rounded=0;strokeWidth=2;" edge="1" parent="1">
          <mxGeometry width="50" height="50" relative="1" as="geometry">
            <mxPoint x="20" y="140" as="sourcePoint" />
            <mxPoint x="820" y="140" as="targetPoint" />
          </mxGeometry>
        </mxCell>
        <mxCell id="EYZ7X_Z6VEcjIyNGsq-e-28" value="" style="edgeStyle=orthogonalEdgeStyle;rounded=0;orthogonalLoop=1;jettySize=auto;html=1;" edge="1" parent="1" source="EYZ7X_Z6VEcjIyNGsq-e-27" target="Fpza6wBcu4iObjeH_q8t-3">
          <mxGeometry relative="1" as="geometry" />
        </mxCell>
        <mxCell id="EYZ7X_Z6VEcjIyNGsq-e-27" value="&lt;font style=&quot;font-size: 14px;&quot;&gt;Fetch odometry data containing position of given robot&lt;/font&gt;" style="rounded=1;whiteSpace=wrap;html=1;absoluteArcSize=1;arcSize=14;strokeWidth=2;" vertex="1" parent="1">
          <mxGeometry x="370" y="10" width="150" height="100" as="geometry" />
        </mxCell>
      </root>
    </mxGraphModel>
  </diagram>
</mxfile>
